
<?xml version="1.0" encoding="UTF-8" standalone="no"?>
<svg xmlns="http://www.w3.org/2000/svg" width="1280" height="860">
  <style>
    .box { fill:#0f1620; stroke:#152131; stroke-width:2; rx:12; ry:12; }
    .title { fill:#e6eef7; font: 700 16px system-ui; }
    .text { fill:#9fb0c0; font: 13px system-ui; }
    .arrow { stroke:#60a5fa; stroke-width:2; marker-end:url(#arrowhead) }
  </style>
  <defs>
    <marker id="arrowhead" markerWidth="10" markerHeight="7" refX="10" refY="3.5" orient="auto">
      <polygon points="0 0, 10 3.5, 0 7" fill="#60a5fa" />
    </marker>
  </defs>
  <rect x="40" y="40" width="360" height="160" class="box"/>
  <text x="60" y="70" class="title">Next.js Webapp</text>
  <text x="60" y="95" class="text">Dashboard, Jobs</text>
  <rect x="440" y="40" width="360" height="240" class="box"/>
  <text x="460" y="70" class="title">FastAPI Backend</text>
  <text x="460" y="95" class="text">/api/*, Slack endpoints</text>
  <text x="460" y="115" class="text">Exports (CSV/JSON/JSONL)</text>
  <rect x="820" y="40" width="320" height="120" class="box"/>
  <text x="840" y="70" class="title">Postgres / SQLite</text>
  <rect x="820" y="180" width="320" height="120" class="box"/>
  <text x="840" y="210" class="title">Redis</text>
  <text x="840" y="235" class="text">Cache, Queue</text>
  <rect x="440" y="300" width="360" height="140" class="box"/>
  <text x="460" y="330" class="title">APScheduler</text>
  <text x="460" y="355" class="text">Alerts & Digests</text>
  <rect x="820" y="300" width="320" height="140" class="box"/>
  <text x="840" y="330" class="title">RQ Worker</text>
  <text x="840" y="355" class="text">Briefs, Backtests</text>
  <rect x="40" y="240" width="360" height="120" class="box"/>
  <text x="60" y="270" class="title">Slack App</text>
  <text x="60" y="295" class="text">/otp brief, backtest, digest</text>
  <rect x="40" y="380" width="360" height="120" class="box"/>
  <text x="60" y="410" class="title">Alembic + Seeds</text>
  <text x="60" y="435" class="text">Schema, sample data</text>
  <rect x="440" y="460" width="360" height="120" class="box"/>
  <text x="460" y="490" class="title">Monitoring</text>
  <text x="460" y="515" class="text">/healthz, /metrics (Prom)</text>
  <line x1="400" y1="110" x2="440" y2="110" class="arrow"/>
  <line x1="800" y1="100" x2="820" y2="100" class="arrow"/>
  <line x1="800" y1="240" x2="820" y2="240" class="arrow"/>
  <line x1="620" y1="280" x2="620" y2="300" class="arrow"/>
  <line x1="800" y1="370" x2="820" y2="370" class="arrow"/>
  <line x1="220" y1="240" x2="440" y2="160" class="arrow"/>
</svg>
